<svg id="info-circle" xmlns="http://www.w3.org/2000/svg" width="16" height="16" viewBox="0 0 16 16">
  <path id="패스_9750" data-name="패스 9750" d="M8,15a7,7,0,1,1,7-7,7,7,0,0,1-7,7m0,1A8,8,0,1,0,0,8a8,8,0,0,0,8,8" fill="#fff"/>
  <path id="패스_9751" data-name="패스 9751" d="M8.93,6.588l-2.29.287-.082.38.45.083c.294.07.352.176.288.469l-.738,3.468c-.194.9.105,1.319.808,1.319A2.071,2.071,0,0,0,8.831,12l.088-.416a1.108,1.108,0,0,1-.686.246c-.275,0-.375-.193-.3-.533ZM9,4.5a1,1,0,1,1-1-1,1,1,0,0,1,1,1" fill="#fff"/>
</svg>
